<svg width="18" height="20" viewBox="0 0 18 20" fill="none" xmlns="http://www.w3.org/2000/svg">
<path d="M12 7.00012L8 11.0001L6 9.00012M17 8.16517C17 14.7334 12.0319 17.6782 9.92578 18.6315L9.92313 18.6327C9.70162 18.7329 9.59058 18.7832 9.33887 18.8264C9.17946 18.8538 8.82154 18.8538 8.66214 18.8264C8.40942 18.783 8.29723 18.7326 8.07395 18.6315C5.9678 17.6782 1 14.7334 1 8.16516V4.20032C1 3.08021 1 2.51974 1.21799 2.09192C1.40973 1.71559 1.71547 1.40986 2.0918 1.21811C2.51962 1.00012 3.08009 1.00012 4.2002 1.00012H13.8002C14.9203 1.00012 15.4796 1.00012 15.9074 1.21811C16.2837 1.40986 16.5905 1.71559 16.7822 2.09192C17 2.51932 17 3.07912 17 4.19703V8.16517Z" stroke="#320A37" stroke-width="1.5" stroke-linecap="square" stroke-linejoin="round"/>
</svg>
