<svg width="18" height="19" viewBox="0 0 18 19" fill="none" xmlns="http://www.w3.org/2000/svg">
<path d="M12 9.0002L8 13.0002L6 11.0002M1 14.8003V9.45235C1 8.918 1 8.65069 1.06497 8.40205C1.12255 8.18171 1.21779 7.97319 1.3457 7.78476C1.49004 7.57214 1.69064 7.39582 2.09277 7.04395L6.89436 2.84256C7.63985 2.19026 8.01261 1.86409 8.43242 1.73994C8.80261 1.63047 9.19719 1.63047 9.56738 1.73994C9.98751 1.86419 10.3608 2.19066 11.1074 2.84395L15.9074 7.04395C16.3096 7.39581 16.5102 7.57214 16.6546 7.78476C16.7825 7.97319 16.877 8.18171 16.9346 8.40205C16.9995 8.65069 17 8.91801 17 9.45235V14.8038C17 15.9217 17 16.4813 16.7822 16.9087C16.5905 17.285 16.2837 17.5907 15.9074 17.7824C15.48 18.0002 14.921 18.0002 13.8031 18.0002H4.19691C3.07899 18.0002 2.5192 18.0002 2.0918 17.7824C1.71547 17.5907 1.40973 17.285 1.21799 16.9087C1 16.4809 1 15.9204 1 14.8003Z" stroke="#320A37" stroke-width="1.5" stroke-linecap="square" stroke-linejoin="round"/>
</svg>
