<svg width="424" height="213" viewBox="0 0 424 213" fill="none" xmlns="http://www.w3.org/2000/svg">
<g filter="url(#filter0_d_5312_21178)">
<rect x="12" y="8" width="128" height="60" rx="4" fill="#3C1441" fill-opacity="0.4" shape-rendering="crispEdges"/>
<rect x="12.5" y="8.5" width="127" height="59" rx="3.5" stroke="#3C1441" stroke-opacity="0.4" shape-rendering="crispEdges"/>
<path opacity="0.8" d="M65.6367 21.1992C65.6003 20.8581 65.4466 20.5924 65.1758 20.4023C64.9076 20.2122 64.5586 20.1172 64.1289 20.1172C63.8268 20.1172 63.5677 20.1628 63.3516 20.2539C63.1354 20.3451 62.9701 20.4687 62.8555 20.625C62.7409 20.7812 62.6823 20.9596 62.6797 21.1602C62.6797 21.3268 62.7174 21.4714 62.793 21.5937C62.8711 21.7161 62.9766 21.8203 63.1094 21.9062C63.2422 21.9896 63.3893 22.0599 63.5508 22.1172C63.7122 22.1745 63.875 22.2227 64.0391 22.2617L64.7891 22.4492C65.0911 22.5195 65.3815 22.6146 65.6602 22.7344C65.9414 22.8542 66.1927 23.0052 66.4141 23.1875C66.638 23.3698 66.8151 23.5898 66.9453 23.8477C67.0755 24.1055 67.1406 24.4076 67.1406 24.7539C67.1406 25.2227 67.0208 25.6354 66.7813 25.9922C66.5417 26.3464 66.1953 26.6237 65.7422 26.8242C65.2917 27.0221 64.7461 27.1211 64.1055 27.1211C63.4831 27.1211 62.9427 27.0247 62.4844 26.832C62.0286 26.6393 61.6719 26.3581 61.4141 25.9883C61.1589 25.6185 61.0208 25.168 61 24.6367H62.4258C62.4466 24.9154 62.5326 25.1471 62.6836 25.332C62.8346 25.5169 63.0313 25.6549 63.2734 25.7461C63.5182 25.8372 63.7917 25.8828 64.0938 25.8828C64.4089 25.8828 64.6849 25.8359 64.9219 25.7422C65.1615 25.6458 65.349 25.513 65.4844 25.3437C65.6198 25.1719 65.6888 24.9714 65.6914 24.7422C65.6888 24.5339 65.6276 24.362 65.5078 24.2266C65.388 24.0885 65.2201 23.974 65.0039 23.8828C64.7904 23.7891 64.5404 23.7057 64.2539 23.6328L63.3438 23.3984C62.6849 23.2292 62.1641 22.9727 61.7813 22.6289C61.401 22.2826 61.2109 21.8229 61.2109 21.25C61.2109 20.7786 61.3385 20.3659 61.5938 20.0117C61.8516 19.6576 62.2018 19.3828 62.6445 19.1875C63.0872 18.9896 63.5885 18.8906 64.1484 18.8906C64.7161 18.8906 65.2135 18.9896 65.6406 19.1875C66.0703 19.3828 66.4076 19.6549 66.6523 20.0039C66.8971 20.3503 67.0234 20.7487 67.0312 21.1992H65.6367ZM70.9873 27.1172C70.3883 27.1172 69.874 26.9857 69.4443 26.7227C69.0173 26.4596 68.6878 26.0964 68.4561 25.6328C68.2269 25.1667 68.1123 24.6302 68.1123 24.0234C68.1123 23.4141 68.2295 22.8763 68.4639 22.4102C68.6982 21.9414 69.029 21.5768 69.4561 21.3164C69.8857 21.0534 70.3936 20.9219 70.9795 20.9219C71.4665 20.9219 71.8975 21.0117 72.2725 21.1914C72.6501 21.3685 72.9508 21.6198 73.1748 21.9453C73.3988 22.2682 73.5264 22.6458 73.5576 23.0781H72.2061C72.1514 22.7891 72.0212 22.5482 71.8154 22.3555C71.6123 22.1602 71.3402 22.0625 70.999 22.0625C70.71 22.0625 70.4561 22.1406 70.2373 22.2969C70.0186 22.4505 69.848 22.6719 69.7256 22.9609C69.6058 23.25 69.5459 23.5964 69.5459 24C69.5459 24.4089 69.6058 24.7604 69.7256 25.0547C69.8454 25.3464 70.0133 25.5716 70.2295 25.7305C70.4482 25.8867 70.7048 25.9648 70.999 25.9648C71.2074 25.9648 71.3936 25.9258 71.5576 25.8477C71.7243 25.7669 71.8636 25.651 71.9756 25.5C72.0876 25.349 72.1644 25.1654 72.2061 24.9492H73.5576C73.5238 25.3737 73.3988 25.75 73.1826 26.0781C72.9665 26.4036 72.6722 26.6589 72.2998 26.8437C71.9274 27.026 71.4899 27.1172 70.9873 27.1172ZM77.3359 27.1172C76.75 27.1172 76.2422 26.9883 75.8125 26.7305C75.3828 26.4727 75.0495 26.112 74.8125 25.6484C74.5781 25.1849 74.4609 24.6432 74.4609 24.0234C74.4609 23.4036 74.5781 22.8607 74.8125 22.3945C75.0495 21.9284 75.3828 21.5664 75.8125 21.3086C76.2422 21.0508 76.75 20.9219 77.3359 20.9219C77.9219 20.9219 78.4297 21.0508 78.8594 21.3086C79.2891 21.5664 79.6211 21.9284 79.8555 22.3945C80.0924 22.8607 80.2109 23.4036 80.2109 24.0234C80.2109 24.6432 80.0924 25.1849 79.8555 25.6484C79.6211 26.112 79.2891 26.4727 78.8594 26.7305C78.4297 26.9883 77.9219 27.1172 77.3359 27.1172ZM77.3438 25.9844C77.6615 25.9844 77.9271 25.8971 78.1406 25.7227C78.3542 25.5456 78.513 25.3086 78.6172 25.0117C78.724 24.7148 78.7773 24.3841 78.7773 24.0195C78.7773 23.6523 78.724 23.3203 78.6172 23.0234C78.513 22.724 78.3542 22.4857 78.1406 22.3086C77.9271 22.1315 77.6615 22.043 77.3438 22.043C77.0182 22.043 76.7474 22.1315 76.5313 22.3086C76.3177 22.4857 76.1576 22.724 76.0508 23.0234C75.9466 23.3203 75.8945 23.6523 75.8945 24.0195C75.8945 24.3841 75.9466 24.7148 76.0508 25.0117C76.1576 25.3086 76.3177 25.5456 76.5313 25.7227C76.7474 25.8971 77.0182 25.9844 77.3438 25.9844ZM81.4111 27V21H82.7822V22H82.8447C82.9541 21.6536 83.1416 21.3867 83.4072 21.1992C83.6755 21.0091 83.9814 20.9141 84.3252 20.9141C84.4033 20.9141 84.4906 20.918 84.5869 20.9258C84.6859 20.931 84.7679 20.9401 84.833 20.9531V22.2539C84.7731 22.2331 84.6781 22.2148 84.5479 22.1992C84.4202 22.181 84.2965 22.1719 84.1768 22.1719C83.9189 22.1719 83.6872 22.2279 83.4814 22.3398C83.2783 22.4492 83.1182 22.6016 83.001 22.7969C82.8838 22.9922 82.8252 23.2174 82.8252 23.4727V27H81.4111ZM88.1816 27.1172C87.5801 27.1172 87.0605 26.9922 86.623 26.7422C86.1882 26.4896 85.8535 26.1328 85.6191 25.6719C85.3848 25.2083 85.2676 24.6628 85.2676 24.0352C85.2676 23.418 85.3848 22.8763 85.6191 22.4102C85.8561 21.9414 86.1868 21.5768 86.6113 21.3164C87.0358 21.0534 87.5345 20.9219 88.1074 20.9219C88.4772 20.9219 88.8262 20.9818 89.1543 21.1016C89.485 21.2187 89.7767 21.401 90.0293 21.6484C90.2845 21.8958 90.485 22.2109 90.6309 22.5937C90.7767 22.974 90.8496 23.4271 90.8496 23.9531V24.3867H85.9316V23.4336H89.4941C89.4915 23.1628 89.4329 22.9219 89.3184 22.7109C89.2038 22.4974 89.0436 22.3294 88.8379 22.207C88.6348 22.0846 88.3978 22.0234 88.127 22.0234C87.8379 22.0234 87.584 22.0937 87.3652 22.2344C87.1465 22.3724 86.9759 22.5547 86.8535 22.7812C86.7337 23.0052 86.6725 23.2513 86.6699 23.5195V24.3516C86.6699 24.7005 86.7337 25 86.8613 25.25C86.9889 25.4974 87.1673 25.6875 87.3965 25.8203C87.6257 25.9505 87.8939 26.0156 88.2012 26.0156C88.4069 26.0156 88.5931 25.987 88.7598 25.9297C88.9264 25.8698 89.071 25.7826 89.1934 25.668C89.3158 25.5534 89.4082 25.4115 89.4707 25.2422L90.791 25.3906C90.7077 25.7396 90.5488 26.0443 90.3145 26.3047C90.0827 26.5625 89.7858 26.763 89.4238 26.9062C89.0618 27.0469 88.6478 27.1172 88.1816 27.1172Z" fill="#3C1441"/>
<path d="M51.1921 40.064C49.8641 41.456 48.7681 42.816 47.9041 44.144C47.0401 45.456 46.3761 46.896 45.9121 48.464C45.4481 50.032 45.2161 51.792 45.2161 53.744C45.2161 54.544 45.2481 55.296 45.3121 56H43.0081C42.9601 55.296 42.9361 54.616 42.9361 53.96C42.9361 51.08 43.4321 48.512 44.4241 46.256C45.4161 44 46.8561 41.936 48.7441 40.064H39.1681V38.048H51.1921V40.064ZM58.7324 56.288C57.6284 56.288 56.6204 56.072 55.7084 55.64C54.8124 55.192 54.1004 54.576 53.5724 53.792C53.0604 53.008 52.8044 52.136 52.8044 51.176C52.8044 50.136 53.1164 49.224 53.7404 48.44C54.3804 47.64 55.2444 47.112 56.3324 46.856C55.3084 46.584 54.5004 46.064 53.9084 45.296C53.3324 44.528 53.0444 43.648 53.0444 42.656C53.0444 41.744 53.2924 40.912 53.7884 40.16C54.2844 39.408 54.9644 38.824 55.8284 38.408C56.6924 37.976 57.6604 37.76 58.7324 37.76C59.8044 37.76 60.7724 37.976 61.6364 38.408C62.5004 38.824 63.1804 39.408 63.6764 40.16C64.1724 40.912 64.4204 41.744 64.4204 42.656C64.4204 43.648 64.1244 44.536 63.5324 45.32C62.9564 46.088 62.1644 46.6 61.1564 46.856C62.2444 47.112 63.1004 47.64 63.7244 48.44C64.3644 49.24 64.6844 50.152 64.6844 51.176C64.6844 52.152 64.4204 53.032 63.8924 53.816C63.3804 54.584 62.6684 55.192 61.7564 55.64C60.8604 56.072 59.8524 56.288 58.7324 56.288ZM55.1084 51.008C55.1084 51.92 55.4444 52.68 56.1164 53.288C56.8044 53.896 57.6764 54.2 58.7324 54.2C59.7884 54.2 60.6604 53.896 61.3484 53.288C62.0364 52.68 62.3804 51.92 62.3804 51.008C62.3804 50.128 62.0524 49.384 61.3964 48.776C60.7404 48.168 59.8524 47.864 58.7324 47.864C57.6124 47.864 56.7244 48.168 56.0684 48.776C55.4284 49.368 55.1084 50.112 55.1084 51.008ZM55.3004 42.8C55.3004 43.632 55.6044 44.336 56.2124 44.912C56.8364 45.488 57.6764 45.776 58.7324 45.776C59.7884 45.776 60.6284 45.488 61.2524 44.912C61.8764 44.336 62.1884 43.632 62.1884 42.8C62.1884 41.952 61.8604 41.248 61.2044 40.688C60.5484 40.112 59.7244 39.824 58.7324 39.824C57.7564 39.824 56.9404 40.112 56.2844 40.688C55.6284 41.248 55.3004 41.952 55.3004 42.8ZM65.7668 56L70.2068 38.048H72.3428L67.8788 56H65.7668ZM80.0153 38.048V56H77.7353V42.416C77.4473 42.8 77.0713 43.056 76.6073 43.184C76.1593 43.296 75.4473 43.352 74.4713 43.352H73.1753V41.336H74.4713C75.3513 41.336 76.0233 41.24 76.4873 41.048C76.9513 40.856 77.2793 40.528 77.4713 40.064C77.6793 39.6 77.8073 38.928 77.8553 38.048H80.0153ZM90.0338 37.76C91.3138 37.76 92.4178 38.136 93.3458 38.888C94.2898 39.624 95.0098 40.688 95.5058 42.08C96.0018 43.472 96.2498 45.128 96.2498 47.048C96.2498 48.968 96.0018 50.624 95.5058 52.016C95.0098 53.392 94.2898 54.448 93.3458 55.184C92.4178 55.92 91.3138 56.288 90.0338 56.288C88.7538 56.288 87.6418 55.92 86.6978 55.184C85.7698 54.448 85.0578 53.392 84.5618 52.016C84.0658 50.624 83.8178 48.968 83.8178 47.048C83.8178 45.112 84.0658 43.448 84.5618 42.056C85.0578 40.664 85.7698 39.6 86.6978 38.864C87.6258 38.128 88.7378 37.76 90.0338 37.76ZM86.1218 47.048C86.1218 49.384 86.4578 51.168 87.1298 52.4C87.8178 53.616 88.7858 54.224 90.0338 54.224C91.2818 54.224 92.2418 53.608 92.9138 52.376C93.5858 51.144 93.9218 49.368 93.9218 47.048C93.9218 44.696 93.5858 42.904 92.9138 41.672C92.2418 40.44 91.2818 39.824 90.0338 39.824C88.7858 39.824 87.8178 40.44 87.1298 41.672C86.4578 42.904 86.1218 44.696 86.1218 47.048ZM105.573 37.76C106.853 37.76 107.957 38.136 108.885 38.888C109.829 39.624 110.549 40.688 111.045 42.08C111.541 43.472 111.789 45.128 111.789 47.048C111.789 48.968 111.541 50.624 111.045 52.016C110.549 53.392 109.829 54.448 108.885 55.184C107.957 55.92 106.853 56.288 105.573 56.288C104.293 56.288 103.181 55.92 102.237 55.184C101.309 54.448 100.597 53.392 100.101 52.016C99.6049 50.624 99.3569 48.968 99.3569 47.048C99.3569 45.112 99.6049 43.448 100.101 42.056C100.597 40.664 101.309 39.6 102.237 38.864C103.165 38.128 104.277 37.76 105.573 37.76ZM101.661 47.048C101.661 49.384 101.997 51.168 102.669 52.4C103.357 53.616 104.325 54.224 105.573 54.224C106.821 54.224 107.781 53.608 108.453 52.376C109.125 51.144 109.461 49.368 109.461 47.048C109.461 44.696 109.125 42.904 108.453 41.672C107.781 40.44 106.821 39.824 105.573 39.824C104.325 39.824 103.357 40.44 102.669 41.672C101.997 42.904 101.661 44.696 101.661 47.048Z" fill="#3C1441"/>
</g>
<g filter="url(#filter1_d_5312_21178)">
<rect x="148" y="8" width="128" height="60" rx="4" fill="#3C1441" fill-opacity="0.1" shape-rendering="crispEdges"/>
<rect x="148.5" y="8.5" width="127" height="59" rx="3.5" stroke="#3C1441" stroke-opacity="0.4" shape-rendering="crispEdges"/>
<path opacity="0.8" d="M174.359 19L176.441 25.2969H176.523L178.602 19H180.195L177.375 27H175.586L172.77 19H174.359ZM185.011 24.4766V21H186.425V27H185.054V25.9336H184.991C184.856 26.2695 184.633 26.5443 184.323 26.7578C184.016 26.9714 183.637 27.0781 183.187 27.0781C182.793 27.0781 182.446 26.9909 182.144 26.8164C181.844 26.6393 181.61 26.3828 181.44 26.0469C181.271 25.7083 181.187 25.2995 181.187 24.8203V21H182.601V24.6016C182.601 24.9818 182.705 25.2839 182.913 25.5078C183.121 25.7318 183.395 25.8437 183.733 25.8437C183.942 25.8437 184.144 25.793 184.339 25.6914C184.534 25.5898 184.694 25.4388 184.819 25.2383C184.947 25.0352 185.011 24.7812 185.011 24.4766ZM189.293 19V27H187.879V19H189.293ZM192.161 23.4844V27H190.747V21H192.099V22.0195H192.169C192.307 21.6836 192.527 21.4167 192.829 21.2187C193.134 21.0208 193.51 20.9219 193.958 20.9219C194.372 20.9219 194.733 21.0104 195.04 21.1875C195.35 21.3646 195.59 21.6211 195.759 21.957C195.931 22.293 196.015 22.7005 196.013 23.1797V27H194.599V23.3984C194.599 22.9974 194.494 22.6836 194.286 22.457C194.08 22.2305 193.795 22.1172 193.431 22.1172C193.183 22.1172 192.963 22.1719 192.771 22.2812C192.58 22.388 192.431 22.543 192.321 22.7461C192.215 22.9492 192.161 23.1953 192.161 23.4844ZM200.106 27.1172C199.505 27.1172 198.985 26.9922 198.548 26.7422C198.113 26.4896 197.778 26.1328 197.544 25.6719C197.31 25.2083 197.192 24.6628 197.192 24.0352C197.192 23.418 197.31 22.8763 197.544 22.4102C197.781 21.9414 198.112 21.5768 198.536 21.3164C198.961 21.0534 199.459 20.9219 200.032 20.9219C200.402 20.9219 200.751 20.9818 201.079 21.1016C201.41 21.2187 201.701 21.401 201.954 21.6484C202.209 21.8958 202.41 22.2109 202.556 22.5937C202.701 22.974 202.774 23.4271 202.774 23.9531V24.3867H197.856V23.4336H201.419C201.416 23.1628 201.358 22.9219 201.243 22.7109C201.129 22.4974 200.968 22.3294 200.763 22.207C200.56 22.0846 200.323 22.0234 200.052 22.0234C199.763 22.0234 199.509 22.0937 199.29 22.2344C199.071 22.3724 198.901 22.5547 198.778 22.7812C198.659 23.0052 198.597 23.2513 198.595 23.5195V24.3516C198.595 24.7005 198.659 25 198.786 25.25C198.914 25.4974 199.092 25.6875 199.321 25.8203C199.55 25.9505 199.819 26.0156 200.126 26.0156C200.332 26.0156 200.518 25.987 200.685 25.9297C200.851 25.8698 200.996 25.7826 201.118 25.668C201.241 25.5534 201.333 25.4115 201.396 25.2422L202.716 25.3906C202.632 25.7396 202.474 26.0443 202.239 26.3047C202.007 26.5625 201.711 26.763 201.349 26.9062C200.987 27.0469 200.573 27.1172 200.106 27.1172ZM199.45 20.2109L200.325 18.4258H201.708L200.509 20.2109H199.45ZM203.971 27V21H205.342V22H205.404C205.514 21.6536 205.701 21.3867 205.967 21.1992C206.235 21.0091 206.541 20.9141 206.885 20.9141C206.963 20.9141 207.05 20.918 207.146 20.9258C207.245 20.931 207.327 20.9401 207.393 20.9531V22.2539C207.333 22.2331 207.238 22.2148 207.107 22.1992C206.98 22.181 206.856 22.1719 206.736 22.1719C206.479 22.1719 206.247 22.2279 206.041 22.3398C205.838 22.4492 205.678 22.6016 205.561 22.7969C205.443 22.9922 205.385 23.2174 205.385 23.4727V27H203.971ZM209.951 27.1211C209.571 27.1211 209.229 27.0534 208.924 26.918C208.622 26.7799 208.382 26.5768 208.205 26.3086C208.031 26.0404 207.943 25.7096 207.943 25.3164C207.943 24.9779 208.006 24.6979 208.131 24.4766C208.256 24.2552 208.426 24.0781 208.643 23.9453C208.859 23.8125 209.102 23.7122 209.373 23.6445C209.646 23.5742 209.929 23.5234 210.221 23.4922C210.572 23.4557 210.857 23.4232 211.076 23.3945C211.295 23.3633 211.454 23.3164 211.553 23.2539C211.654 23.1888 211.705 23.0885 211.705 22.9531V22.9297C211.705 22.6354 211.618 22.4076 211.443 22.2461C211.269 22.0846 211.018 22.0039 210.689 22.0039C210.343 22.0039 210.068 22.0794 209.865 22.2305C209.665 22.3815 209.529 22.5599 209.459 22.7656L208.139 22.5781C208.243 22.2135 208.415 21.9089 208.654 21.6641C208.894 21.4167 209.187 21.2318 209.533 21.1094C209.88 20.9844 210.262 20.9219 210.682 20.9219C210.971 20.9219 211.258 20.9557 211.545 21.0234C211.831 21.0911 212.093 21.2031 212.33 21.3594C212.567 21.513 212.757 21.7227 212.9 21.9883C213.046 22.2539 213.119 22.5859 213.119 22.9844V27H211.76V26.1758H211.713C211.627 26.3424 211.506 26.4987 211.35 26.6445C211.196 26.7878 211.002 26.9036 210.768 26.9922C210.536 27.0781 210.264 27.1211 209.951 27.1211ZM210.318 26.082C210.602 26.082 210.848 26.026 211.057 25.9141C211.265 25.7995 211.425 25.6484 211.537 25.4609C211.652 25.2734 211.709 25.069 211.709 24.8477V24.1406C211.665 24.1771 211.589 24.2109 211.482 24.2422C211.378 24.2734 211.261 24.3008 211.131 24.3242C211.001 24.3477 210.872 24.3685 210.744 24.3867C210.617 24.4049 210.506 24.4206 210.412 24.4336C210.201 24.4622 210.012 24.5091 209.846 24.5742C209.679 24.6393 209.548 24.7305 209.451 24.8477C209.355 24.9622 209.307 25.1107 209.307 25.293C209.307 25.5534 209.402 25.75 209.592 25.8828C209.782 26.0156 210.024 26.082 210.318 26.082ZM214.604 27V19H216.018V21.9922H216.076C216.149 21.8464 216.252 21.6914 216.385 21.5273C216.518 21.3607 216.697 21.2187 216.924 21.1016C217.15 20.9818 217.439 20.9219 217.791 20.9219C218.255 20.9219 218.673 21.0404 219.045 21.2773C219.42 21.5117 219.717 21.8594 219.936 22.3203C220.157 22.7786 220.268 23.3411 220.268 24.0078C220.268 24.6667 220.16 25.2266 219.943 25.6875C219.727 26.1484 219.433 26.5 219.061 26.7422C218.688 26.9844 218.266 27.1055 217.795 27.1055C217.451 27.1055 217.166 27.0482 216.939 26.9336C216.713 26.819 216.531 26.681 216.393 26.5195C216.257 26.3555 216.152 26.2005 216.076 26.0547H215.994V27H214.604ZM215.99 24C215.99 24.388 216.045 24.7279 216.154 25.0195C216.266 25.3112 216.426 25.5391 216.635 25.7031C216.846 25.8646 217.101 25.9453 217.4 25.9453C217.713 25.9453 217.975 25.862 218.186 25.6953C218.396 25.526 218.555 25.2956 218.662 25.0039C218.771 24.7096 218.826 24.375 218.826 24C218.826 23.6276 218.773 23.2969 218.666 23.0078C218.559 22.7187 218.4 22.4922 218.189 22.3281C217.979 22.1641 217.715 22.082 217.4 22.082C217.098 22.082 216.842 22.1615 216.631 22.3203C216.42 22.4792 216.26 22.7018 216.15 22.9883C216.044 23.2747 215.99 23.612 215.99 24ZM221.47 27V21H222.884V27H221.47ZM222.181 20.1484C221.957 20.1484 221.764 20.0742 221.603 19.9258C221.441 19.7747 221.36 19.5937 221.36 19.3828C221.36 19.1693 221.441 18.9883 221.603 18.8398C221.764 18.6888 221.957 18.6133 222.181 18.6133C222.407 18.6133 222.6 18.6888 222.759 18.8398C222.92 18.9883 223.001 19.1693 223.001 19.3828C223.001 19.5937 222.92 19.7747 222.759 19.9258C222.6 20.0742 222.407 20.1484 222.181 20.1484ZM225.752 19V27H224.338V19H225.752ZM227.206 27V21H228.62V27H227.206ZM227.917 20.1484C227.693 20.1484 227.5 20.0742 227.339 19.9258C227.177 19.7747 227.097 19.5937 227.097 19.3828C227.097 19.1693 227.177 18.9883 227.339 18.8398C227.5 18.6888 227.693 18.6133 227.917 18.6133C228.144 18.6133 228.336 18.6888 228.495 18.8398C228.657 18.9883 228.737 19.1693 228.737 19.3828C228.737 19.5937 228.657 19.7747 228.495 19.9258C228.336 20.0742 228.144 20.1484 227.917 20.1484ZM233.07 21V22.0937H229.621V21H233.07ZM230.473 19.5625H231.887V25.1953C231.887 25.3854 231.915 25.5313 231.973 25.6328C232.033 25.7318 232.111 25.7995 232.207 25.8359C232.303 25.8724 232.41 25.8906 232.527 25.8906C232.616 25.8906 232.697 25.8841 232.77 25.8711C232.845 25.8581 232.902 25.8464 232.941 25.8359L233.18 26.9414C233.104 26.9674 232.996 26.9961 232.855 27.0273C232.717 27.0586 232.548 27.0768 232.348 27.082C231.993 27.0924 231.674 27.0391 231.391 26.9219C231.107 26.8021 230.882 26.6172 230.715 26.3672C230.551 26.1172 230.47 25.8047 230.473 25.4297V19.5625ZM236.845 27.1172C236.243 27.1172 235.724 26.9922 235.286 26.7422C234.851 26.4896 234.517 26.1328 234.282 25.6719C234.048 25.2083 233.931 24.6628 233.931 24.0352C233.931 23.418 234.048 22.8763 234.282 22.4102C234.519 21.9414 234.85 21.5768 235.274 21.3164C235.699 21.0534 236.198 20.9219 236.771 20.9219C237.14 20.9219 237.489 20.9818 237.817 21.1016C238.148 21.2187 238.44 21.401 238.692 21.6484C238.948 21.8958 239.148 22.2109 239.294 22.5937C239.44 22.974 239.513 23.4271 239.513 23.9531V24.3867H234.595V23.4336H238.157C238.155 23.1628 238.096 22.9219 237.981 22.7109C237.867 22.4974 237.707 22.3294 237.501 22.207C237.298 22.0846 237.061 22.0234 236.79 22.0234C236.501 22.0234 236.247 22.0937 236.028 22.2344C235.81 22.3724 235.639 22.5547 235.517 22.7812C235.397 23.0052 235.336 23.2513 235.333 23.5195V24.3516C235.333 24.7005 235.397 25 235.524 25.25C235.652 25.4974 235.83 25.6875 236.06 25.8203C236.289 25.9505 236.557 26.0156 236.864 26.0156C237.07 26.0156 237.256 25.987 237.423 25.9297C237.59 25.8698 237.734 25.7826 237.856 25.668C237.979 25.5534 238.071 25.4115 238.134 25.2422L239.454 25.3906C239.371 25.7396 239.212 26.0443 238.978 26.3047C238.746 26.5625 238.449 26.763 238.087 26.9062C237.725 27.0469 237.311 27.1172 236.845 27.1172ZM236.188 20.2109L237.063 18.4258H238.446L237.247 20.2109H236.188ZM244.527 27H242.98L245.797 19H247.586L250.406 27H248.859L246.723 20.6406H246.66L244.527 27ZM244.578 23.8633H248.797V25.0273H244.578V23.8633Z" fill="#3C1441"/>
<path d="M212.006 37.76C213.286 37.76 214.39 38.136 215.318 38.888C216.262 39.624 216.982 40.688 217.478 42.08C217.974 43.472 218.222 45.128 218.222 47.048C218.222 48.968 217.974 50.624 217.478 52.016C216.982 53.392 216.262 54.448 215.318 55.184C214.39 55.92 213.286 56.288 212.006 56.288C210.726 56.288 209.614 55.92 208.67 55.184C207.742 54.448 207.03 53.392 206.534 52.016C206.038 50.624 205.79 48.968 205.79 47.048C205.79 45.112 206.038 43.448 206.534 42.056C207.03 40.664 207.742 39.6 208.67 38.864C209.598 38.128 210.71 37.76 212.006 37.76ZM208.094 47.048C208.094 49.384 208.43 51.168 209.102 52.4C209.79 53.616 210.758 54.224 212.006 54.224C213.254 54.224 214.214 53.608 214.886 52.376C215.558 51.144 215.894 49.368 215.894 47.048C215.894 44.696 215.558 42.904 214.886 41.672C214.214 40.44 213.254 39.824 212.006 39.824C210.758 39.824 209.79 40.44 209.102 41.672C208.43 42.904 208.094 44.696 208.094 47.048Z" fill="#3C1441"/>
</g>
<g filter="url(#filter2_d_5312_21178)">
<rect x="284" y="8" width="128" height="60" rx="4" fill="#3C1441" fill-opacity="0.1" shape-rendering="crispEdges"/>
<rect x="284.5" y="8.5" width="127" height="59" rx="3.5" stroke="#3C1441" stroke-opacity="0.4" shape-rendering="crispEdges"/>
<path opacity="0.8" d="M310.859 19L312.941 25.2969H313.023L315.102 19H316.695L313.875 27H312.086L309.27 19H310.859ZM321.511 24.4766V21H322.925V27H321.554V25.9336H321.491C321.356 26.2695 321.133 26.5443 320.823 26.7578C320.516 26.9714 320.137 27.0781 319.687 27.0781C319.293 27.0781 318.946 26.9909 318.644 26.8164C318.344 26.6393 318.11 26.3828 317.94 26.0469C317.771 25.7083 317.687 25.2995 317.687 24.8203V21H319.101V24.6016C319.101 24.9818 319.205 25.2839 319.413 25.5078C319.621 25.7318 319.895 25.8437 320.233 25.8437C320.442 25.8437 320.644 25.793 320.839 25.6914C321.034 25.5898 321.194 25.4388 321.319 25.2383C321.447 25.0352 321.511 24.7812 321.511 24.4766ZM325.793 19V27H324.379V19H325.793ZM328.661 23.4844V27H327.247V21H328.599V22.0195H328.669C328.807 21.6836 329.027 21.4167 329.329 21.2187C329.634 21.0208 330.01 20.9219 330.458 20.9219C330.872 20.9219 331.233 21.0104 331.54 21.1875C331.85 21.3646 332.09 21.6211 332.259 21.957C332.431 22.293 332.515 22.7005 332.513 23.1797V27H331.099V23.3984C331.099 22.9974 330.994 22.6836 330.786 22.457C330.58 22.2305 330.295 22.1172 329.931 22.1172C329.683 22.1172 329.463 22.1719 329.271 22.2812C329.08 22.388 328.931 22.543 328.821 22.7461C328.715 22.9492 328.661 23.1953 328.661 23.4844ZM336.606 27.1172C336.005 27.1172 335.485 26.9922 335.048 26.7422C334.613 26.4896 334.278 26.1328 334.044 25.6719C333.81 25.2083 333.692 24.6628 333.692 24.0352C333.692 23.418 333.81 22.8763 334.044 22.4102C334.281 21.9414 334.612 21.5768 335.036 21.3164C335.461 21.0534 335.959 20.9219 336.532 20.9219C336.902 20.9219 337.251 20.9818 337.579 21.1016C337.91 21.2187 338.201 21.401 338.454 21.6484C338.709 21.8958 338.91 22.2109 339.056 22.5937C339.201 22.974 339.274 23.4271 339.274 23.9531V24.3867H334.356V23.4336H337.919C337.916 23.1628 337.858 22.9219 337.743 22.7109C337.629 22.4974 337.468 22.3294 337.263 22.207C337.06 22.0846 336.823 22.0234 336.552 22.0234C336.263 22.0234 336.009 22.0937 335.79 22.2344C335.571 22.3724 335.401 22.5547 335.278 22.7812C335.159 23.0052 335.097 23.2513 335.095 23.5195V24.3516C335.095 24.7005 335.159 25 335.286 25.25C335.414 25.4974 335.592 25.6875 335.821 25.8203C336.05 25.9505 336.319 26.0156 336.626 26.0156C336.832 26.0156 337.018 25.987 337.185 25.9297C337.351 25.8698 337.496 25.7826 337.618 25.668C337.741 25.5534 337.833 25.4115 337.896 25.2422L339.216 25.3906C339.132 25.7396 338.974 26.0443 338.739 26.3047C338.507 26.5625 338.211 26.763 337.849 26.9062C337.487 27.0469 337.073 27.1172 336.606 27.1172ZM335.95 20.2109L336.825 18.4258H338.208L337.009 20.2109H335.95ZM340.471 27V21H341.842V22H341.904C342.014 21.6536 342.201 21.3867 342.467 21.1992C342.735 21.0091 343.041 20.9141 343.385 20.9141C343.463 20.9141 343.55 20.918 343.646 20.9258C343.745 20.931 343.827 20.9401 343.893 20.9531V22.2539C343.833 22.2331 343.738 22.2148 343.607 22.1992C343.48 22.181 343.356 22.1719 343.236 22.1719C342.979 22.1719 342.747 22.2279 342.541 22.3398C342.338 22.4492 342.178 22.6016 342.061 22.7969C341.943 22.9922 341.885 23.2174 341.885 23.4727V27H340.471ZM346.451 27.1211C346.071 27.1211 345.729 27.0534 345.424 26.918C345.122 26.7799 344.882 26.5768 344.705 26.3086C344.531 26.0404 344.443 25.7096 344.443 25.3164C344.443 24.9779 344.506 24.6979 344.631 24.4766C344.756 24.2552 344.926 24.0781 345.143 23.9453C345.359 23.8125 345.602 23.7122 345.873 23.6445C346.146 23.5742 346.429 23.5234 346.721 23.4922C347.072 23.4557 347.357 23.4232 347.576 23.3945C347.795 23.3633 347.954 23.3164 348.053 23.2539C348.154 23.1888 348.205 23.0885 348.205 22.9531V22.9297C348.205 22.6354 348.118 22.4076 347.943 22.2461C347.769 22.0846 347.518 22.0039 347.189 22.0039C346.843 22.0039 346.568 22.0794 346.365 22.2305C346.165 22.3815 346.029 22.5599 345.959 22.7656L344.639 22.5781C344.743 22.2135 344.915 21.9089 345.154 21.6641C345.394 21.4167 345.687 21.2318 346.033 21.1094C346.38 20.9844 346.762 20.9219 347.182 20.9219C347.471 20.9219 347.758 20.9557 348.045 21.0234C348.331 21.0911 348.593 21.2031 348.83 21.3594C349.067 21.513 349.257 21.7227 349.4 21.9883C349.546 22.2539 349.619 22.5859 349.619 22.9844V27H348.26V26.1758H348.213C348.127 26.3424 348.006 26.4987 347.85 26.6445C347.696 26.7878 347.502 26.9036 347.268 26.9922C347.036 27.0781 346.764 27.1211 346.451 27.1211ZM346.818 26.082C347.102 26.082 347.348 26.026 347.557 25.9141C347.765 25.7995 347.925 25.6484 348.037 25.4609C348.152 25.2734 348.209 25.069 348.209 24.8477V24.1406C348.165 24.1771 348.089 24.2109 347.982 24.2422C347.878 24.2734 347.761 24.3008 347.631 24.3242C347.501 24.3477 347.372 24.3685 347.244 24.3867C347.117 24.4049 347.006 24.4206 346.912 24.4336C346.701 24.4622 346.512 24.5091 346.346 24.5742C346.179 24.6393 346.048 24.7305 345.951 24.8477C345.855 24.9622 345.807 25.1107 345.807 25.293C345.807 25.5534 345.902 25.75 346.092 25.8828C346.282 26.0156 346.524 26.082 346.818 26.082ZM351.104 27V19H352.518V21.9922H352.576C352.649 21.8464 352.752 21.6914 352.885 21.5273C353.018 21.3607 353.197 21.2187 353.424 21.1016C353.65 20.9818 353.939 20.9219 354.291 20.9219C354.755 20.9219 355.173 21.0404 355.545 21.2773C355.92 21.5117 356.217 21.8594 356.436 22.3203C356.657 22.7786 356.768 23.3411 356.768 24.0078C356.768 24.6667 356.66 25.2266 356.443 25.6875C356.227 26.1484 355.933 26.5 355.561 26.7422C355.188 26.9844 354.766 27.1055 354.295 27.1055C353.951 27.1055 353.666 27.0482 353.439 26.9336C353.213 26.819 353.031 26.681 352.893 26.5195C352.757 26.3555 352.652 26.2005 352.576 26.0547H352.494V27H351.104ZM352.49 24C352.49 24.388 352.545 24.7279 352.654 25.0195C352.766 25.3112 352.926 25.5391 353.135 25.7031C353.346 25.8646 353.601 25.9453 353.9 25.9453C354.213 25.9453 354.475 25.862 354.686 25.6953C354.896 25.526 355.055 25.2956 355.162 25.0039C355.271 24.7096 355.326 24.375 355.326 24C355.326 23.6276 355.273 23.2969 355.166 23.0078C355.059 22.7187 354.9 22.4922 354.689 22.3281C354.479 22.1641 354.215 22.082 353.9 22.082C353.598 22.082 353.342 22.1615 353.131 22.3203C352.92 22.4792 352.76 22.7018 352.65 22.9883C352.544 23.2747 352.49 23.612 352.49 24ZM357.97 27V21H359.384V27H357.97ZM358.681 20.1484C358.457 20.1484 358.264 20.0742 358.103 19.9258C357.941 19.7747 357.86 19.5937 357.86 19.3828C357.86 19.1693 357.941 18.9883 358.103 18.8398C358.264 18.6888 358.457 18.6133 358.681 18.6133C358.907 18.6133 359.1 18.6888 359.259 18.8398C359.42 18.9883 359.501 19.1693 359.501 19.3828C359.501 19.5937 359.42 19.7747 359.259 19.9258C359.1 20.0742 358.907 20.1484 358.681 20.1484ZM362.252 19V27H360.838V19H362.252ZM363.706 27V21H365.12V27H363.706ZM364.417 20.1484C364.193 20.1484 364 20.0742 363.839 19.9258C363.677 19.7747 363.597 19.5937 363.597 19.3828C363.597 19.1693 363.677 18.9883 363.839 18.8398C364 18.6888 364.193 18.6133 364.417 18.6133C364.644 18.6133 364.836 18.6888 364.995 18.8398C365.157 18.9883 365.237 19.1693 365.237 19.3828C365.237 19.5937 365.157 19.7747 364.995 19.9258C364.836 20.0742 364.644 20.1484 364.417 20.1484ZM369.57 21V22.0937H366.121V21H369.57ZM366.973 19.5625H368.387V25.1953C368.387 25.3854 368.415 25.5313 368.473 25.6328C368.533 25.7318 368.611 25.7995 368.707 25.8359C368.803 25.8724 368.91 25.8906 369.027 25.8906C369.116 25.8906 369.197 25.8841 369.27 25.8711C369.345 25.8581 369.402 25.8464 369.441 25.8359L369.68 26.9414C369.604 26.9674 369.496 26.9961 369.355 27.0273C369.217 27.0586 369.048 27.0768 368.848 27.082C368.493 27.0924 368.174 27.0391 367.891 26.9219C367.607 26.8021 367.382 26.6172 367.215 26.3672C367.051 26.1172 366.97 25.8047 366.973 25.4297V19.5625ZM373.345 27.1172C372.743 27.1172 372.224 26.9922 371.786 26.7422C371.351 26.4896 371.017 26.1328 370.782 25.6719C370.548 25.2083 370.431 24.6628 370.431 24.0352C370.431 23.418 370.548 22.8763 370.782 22.4102C371.019 21.9414 371.35 21.5768 371.774 21.3164C372.199 21.0534 372.698 20.9219 373.271 20.9219C373.64 20.9219 373.989 20.9818 374.317 21.1016C374.648 21.2187 374.94 21.401 375.192 21.6484C375.448 21.8958 375.648 22.2109 375.794 22.5937C375.94 22.974 376.013 23.4271 376.013 23.9531V24.3867H371.095V23.4336H374.657C374.655 23.1628 374.596 22.9219 374.481 22.7109C374.367 22.4974 374.207 22.3294 374.001 22.207C373.798 22.0846 373.561 22.0234 373.29 22.0234C373.001 22.0234 372.747 22.0937 372.528 22.2344C372.31 22.3724 372.139 22.5547 372.017 22.7812C371.897 23.0052 371.836 23.2513 371.833 23.5195V24.3516C371.833 24.7005 371.897 25 372.024 25.25C372.152 25.4974 372.33 25.6875 372.56 25.8203C372.789 25.9505 373.057 26.0156 373.364 26.0156C373.57 26.0156 373.756 25.987 373.923 25.9297C374.09 25.8698 374.234 25.7826 374.356 25.668C374.479 25.5534 374.571 25.4115 374.634 25.2422L375.954 25.3906C375.871 25.7396 375.712 26.0443 375.478 26.3047C375.246 26.5625 374.949 26.763 374.587 26.9062C374.225 27.0469 373.811 27.1172 373.345 27.1172ZM372.688 20.2109L373.563 18.4258H374.946L373.747 20.2109H372.688ZM380 27V19H383.063C383.641 19 384.121 19.0911 384.504 19.2734C384.889 19.4531 385.177 19.6992 385.367 20.0117C385.56 20.3242 385.656 20.6784 385.656 21.0742C385.656 21.3997 385.594 21.6784 385.469 21.9102C385.344 22.1393 385.176 22.3255 384.965 22.4687C384.754 22.612 384.518 22.7148 384.258 22.7773V22.8555C384.542 22.8711 384.814 22.9583 385.074 23.1172C385.337 23.2734 385.552 23.4948 385.719 23.7812C385.885 24.0677 385.969 24.4141 385.969 24.8203C385.969 25.2344 385.868 25.6068 385.668 25.9375C385.467 26.2656 385.165 26.5247 384.762 26.7148C384.358 26.9049 383.85 27 383.238 27H380ZM381.449 25.7891H383.008C383.534 25.7891 383.913 25.6888 384.145 25.4883C384.379 25.2852 384.496 25.0247 384.496 24.707C384.496 24.4701 384.438 24.2565 384.32 24.0664C384.203 23.8737 384.036 23.7227 383.82 23.6133C383.604 23.5013 383.346 23.4453 383.047 23.4453H381.449V25.7891ZM381.449 22.4023H382.883C383.133 22.4023 383.358 22.3568 383.559 22.2656C383.759 22.1719 383.917 22.0404 384.031 21.8711C384.148 21.6992 384.207 21.4961 384.207 21.2617C384.207 20.9518 384.098 20.6966 383.879 20.4961C383.663 20.2956 383.341 20.1953 382.914 20.1953H381.449V22.4023Z" fill="#3C1441"/>
<path d="M348.052 56.288C347.012 56.288 346.06 56.064 345.196 55.616C344.332 55.152 343.628 54.512 343.084 53.696C342.556 52.88 342.26 51.952 342.196 50.912H344.38C344.508 51.904 344.916 52.704 345.604 53.312C346.292 53.92 347.116 54.224 348.076 54.224C349.068 54.224 349.884 53.912 350.524 53.288C351.18 52.664 351.508 51.864 351.508 50.888C351.508 49.944 351.14 49.176 350.404 48.584C349.684 47.976 348.756 47.672 347.62 47.672H346.78L346.492 45.656H347.668C348.676 45.656 349.5 45.376 350.14 44.816C350.796 44.256 351.124 43.536 351.124 42.656C351.124 41.824 350.828 41.144 350.236 40.616C349.644 40.088 348.884 39.824 347.956 39.824C347.028 39.824 346.228 40.136 345.556 40.76C344.9 41.384 344.508 42.184 344.38 43.16H342.172C342.252 42.104 342.556 41.168 343.084 40.352C343.628 39.536 344.324 38.904 345.172 38.456C346.036 37.992 346.98 37.76 348.004 37.76C349.044 37.76 349.972 37.96 350.788 38.36C351.62 38.76 352.268 39.32 352.732 40.04C353.196 40.76 353.428 41.576 353.428 42.488C353.428 43.576 353.1 44.496 352.444 45.248C351.788 46 350.956 46.44 349.948 46.568C350.684 46.664 351.348 46.928 351.94 47.36C352.532 47.792 352.996 48.328 353.332 48.968C353.668 49.608 353.836 50.28 353.836 50.984C353.836 52.008 353.588 52.92 353.092 53.72C352.596 54.52 351.908 55.152 351.028 55.616C350.148 56.064 349.156 56.288 348.052 56.288Z" fill="#3C1441"/>
</g>
<g filter="url(#filter3_d_5312_21178)">
<rect x="12" y="76" width="400" height="121" rx="4" fill="#3C1441" shape-rendering="crispEdges"/>
<path opacity="0.8" d="M23.0043 96V85.8182H24.8487V90.1286H29.5668V85.8182H31.4162V96H29.5668V91.6747H24.8487V96H23.0043ZM33.3427 96V88.3636H35.1424V96H33.3427ZM34.2475 87.2798C33.9625 87.2798 33.7172 87.1854 33.5117 86.9964C33.3062 86.8042 33.2035 86.5739 33.2035 86.3054C33.2035 86.0336 33.3062 85.8033 33.5117 85.6143C33.7172 85.4221 33.9625 85.326 34.2475 85.326C34.5359 85.326 34.7811 85.4221 34.9833 85.6143C35.1888 85.8033 35.2915 86.0336 35.2915 86.3054C35.2915 86.5739 35.1888 86.8042 34.9833 86.9964C34.7811 87.1854 34.5359 87.2798 34.2475 87.2798ZM43.0286 90.3821L41.388 90.5611C41.3416 90.3954 41.2604 90.2396 41.1444 90.0938C41.0317 89.9479 40.8792 89.8303 40.687 89.7408C40.4947 89.6513 40.2594 89.6065 39.981 89.6065C39.6065 89.6065 39.2916 89.6877 39.0364 89.8501C38.7845 90.0125 38.6602 90.223 38.6635 90.4815C38.6602 90.7036 38.7414 90.8842 38.9071 91.0234C39.0762 91.1626 39.3546 91.277 39.7424 91.3665L41.0449 91.6449C41.7675 91.8007 42.3044 92.0476 42.6557 92.3857C43.0104 92.7237 43.1893 93.1662 43.1926 93.7131C43.1893 94.1937 43.0485 94.6179 42.7701 94.9858C42.495 95.3504 42.1122 95.6354 41.6216 95.8409C41.1311 96.0464 40.5676 96.1491 39.9313 96.1491C38.9966 96.1491 38.2443 95.9536 37.6742 95.5625C37.1041 95.1681 36.7644 94.6196 36.655 93.9169L38.41 93.7479C38.4895 94.0926 38.6586 94.3527 38.9171 94.5284C39.1756 94.7041 39.512 94.7919 39.9263 94.7919C40.3539 94.7919 40.6969 94.7041 40.9554 94.5284C41.2173 94.3527 41.3482 94.1357 41.3482 93.8771C41.3482 93.6584 41.2637 93.4777 41.0946 93.3352C40.9289 93.1927 40.6704 93.0833 40.3191 93.0071L39.0165 92.7337C38.284 92.5812 37.7421 92.3243 37.3908 91.9631C37.0395 91.5985 36.8655 91.1378 36.8688 90.581C36.8655 90.1103 36.9931 89.7027 37.2516 89.358C37.5134 89.0099 37.8764 88.7415 38.3404 88.5526C38.8077 88.3603 39.3463 88.2642 39.9561 88.2642C40.851 88.2642 41.5553 88.4548 42.0691 88.8359C42.5861 89.2171 42.906 89.7325 43.0286 90.3821ZM48.4899 88.3636V89.7557H44.1V88.3636H48.4899ZM45.1838 86.5341H46.9835V93.7031C46.9835 93.9451 47.0199 94.1307 47.0929 94.2599C47.1691 94.3859 47.2685 94.4721 47.3912 94.5185C47.5138 94.5649 47.6497 94.5881 47.7988 94.5881C47.9115 94.5881 48.0143 94.5798 48.1071 94.5632C48.2032 94.5466 48.2761 94.5317 48.3258 94.5185L48.6291 95.9254C48.533 95.9586 48.3954 95.995 48.2164 96.0348C48.0408 96.0746 47.8253 96.0978 47.5701 96.1044C47.1194 96.1177 46.7134 96.0497 46.3521 95.9006C45.9908 95.7481 45.7041 95.5128 45.492 95.1946C45.2832 94.8764 45.1805 94.4787 45.1838 94.0014V86.5341ZM53.244 96.1491C52.4982 96.1491 51.8519 95.9851 51.305 95.657C50.7582 95.3288 50.3339 94.8698 50.0323 94.2798C49.734 93.6899 49.5849 93.0005 49.5849 92.2116C49.5849 91.4228 49.734 90.7318 50.0323 90.1385C50.3339 89.5452 50.7582 89.0845 51.305 88.7564C51.8519 88.4283 52.4982 88.2642 53.244 88.2642C53.9897 88.2642 54.636 88.4283 55.1829 88.7564C55.7298 89.0845 56.1523 89.5452 56.4506 90.1385C56.7522 90.7318 56.9031 91.4228 56.9031 92.2116C56.9031 93.0005 56.7522 93.6899 56.4506 94.2798C56.1523 94.8698 55.7298 95.3288 55.1829 95.657C54.636 95.9851 53.9897 96.1491 53.244 96.1491ZM53.2539 94.7074C53.6583 94.7074 53.9963 94.5964 54.2681 94.3743C54.5399 94.1489 54.7421 93.8473 54.8746 93.4695C55.0105 93.0916 55.0785 92.6707 55.0785 92.2067C55.0785 91.7393 55.0105 91.3168 54.8746 90.9389C54.7421 90.5578 54.5399 90.2545 54.2681 90.0291C53.9963 89.8037 53.6583 89.6911 53.2539 89.6911C52.8396 89.6911 52.4949 89.8037 52.2198 90.0291C51.948 90.2545 51.7442 90.5578 51.6083 90.9389C51.4757 91.3168 51.4094 91.7393 51.4094 92.2067C51.4094 92.6707 51.4757 93.0916 51.6083 93.4695C51.7442 93.8473 51.948 94.1489 52.2198 94.3743C52.4949 94.5964 52.8396 94.7074 53.2539 94.7074ZM58.4306 96V88.3636H60.1756V89.6364H60.2551C60.3944 89.1955 60.633 88.8558 60.9711 88.6172C61.3124 88.3752 61.7019 88.2543 62.1394 88.2543C62.2388 88.2543 62.3498 88.2592 62.4725 88.2692C62.5984 88.2758 62.7028 88.2874 62.7857 88.304V89.9595C62.7095 89.933 62.5885 89.9098 62.4228 89.8899C62.2604 89.8667 62.1029 89.8551 61.9505 89.8551C61.6223 89.8551 61.3274 89.9264 61.0655 90.0689C60.807 90.2081 60.6032 90.402 60.454 90.6506C60.3049 90.8991 60.2303 91.1858 60.2303 91.5107V96H58.4306ZM63.9814 96V88.3636H65.7811V96H63.9814ZM64.8862 87.2798C64.6011 87.2798 64.3559 87.1854 64.1504 86.9964C63.9449 86.8042 63.8422 86.5739 63.8422 86.3054C63.8422 86.0336 63.9449 85.8033 64.1504 85.6143C64.3559 85.4221 64.6011 85.326 64.8862 85.326C65.1745 85.326 65.4198 85.4221 65.622 85.6143C65.8275 85.8033 65.9302 86.0336 65.9302 86.3054C65.9302 86.5739 65.8275 86.8042 65.622 86.9964C65.4198 87.1854 65.1745 87.2798 64.8862 87.2798ZM72.7276 98.8636V94.7969H72.6531C72.5603 94.9825 72.426 95.1797 72.2504 95.3885C72.0747 95.594 71.8427 95.7696 71.5543 95.9155C71.266 96.0613 70.9031 96.1342 70.4656 96.1342C69.8656 96.1342 69.3287 95.9801 68.8548 95.6719C68.3808 95.3636 68.0063 94.9162 67.7312 94.3295C67.4561 93.7429 67.3185 93.0303 67.3185 92.1918C67.3185 91.3433 67.4577 90.6274 67.7362 90.044C68.0179 89.4574 68.3974 89.0149 68.8746 88.7166C69.3519 88.415 69.8839 88.2642 70.4705 88.2642C70.918 88.2642 71.2859 88.3404 71.5742 88.4929C71.8626 88.642 72.0913 88.8227 72.2603 89.0348C72.4293 89.2436 72.5603 89.4408 72.6531 89.6264H72.7624V88.3636H74.5323V98.8636H72.7276ZM70.9677 94.6577C71.3488 94.6577 71.6737 94.5549 71.9421 94.3494C72.2106 94.1406 72.4144 93.8506 72.5536 93.4794C72.6928 93.1082 72.7624 92.6757 72.7624 92.1818C72.7624 91.688 72.6928 91.2588 72.5536 90.8942C72.4177 90.5296 72.2156 90.2462 71.9471 90.044C71.6819 89.8419 71.3555 89.7408 70.9677 89.7408C70.5666 89.7408 70.2319 89.8452 69.9634 90.054C69.695 90.2628 69.4928 90.5511 69.3569 90.919C69.221 91.2869 69.1531 91.7079 69.1531 92.1818C69.1531 92.6591 69.221 93.085 69.3569 93.4595C69.4961 93.8307 69.6999 94.1241 69.9684 94.3395C70.2402 94.5516 70.5733 94.6577 70.9677 94.6577ZM81.2489 92.7884V88.3636H83.0487V96H81.3036V94.6428H81.2241C81.0517 95.0703 80.7683 95.42 80.3739 95.6918C79.9828 95.9635 79.5006 96.0994 78.9272 96.0994C78.4267 96.0994 77.9843 95.9884 77.5998 95.7663C77.2186 95.541 76.9203 95.2145 76.7049 94.7869C76.4895 94.3561 76.3817 93.8357 76.3817 93.2259V88.3636H78.1815V92.9474C78.1815 93.4313 78.314 93.8158 78.5792 94.1009C78.8443 94.3859 79.1924 94.5284 79.6232 94.5284C79.8884 94.5284 80.1452 94.4638 80.3938 94.3345C80.6424 94.2053 80.8462 94.013 81.0053 93.7578C81.1677 93.4993 81.2489 93.1761 81.2489 92.7884ZM88.28 96.1491C87.5144 96.1491 86.8532 95.9901 86.2963 95.6719C85.7428 95.3504 85.3169 94.8963 85.0186 94.3097C84.7203 93.7197 84.5712 93.0253 84.5712 92.2266C84.5712 91.4411 84.7203 90.7517 85.0186 90.1584C85.3203 89.5618 85.7412 89.0978 86.2814 88.7663C86.8217 88.4316 87.4564 88.2642 88.1855 88.2642C88.6562 88.2642 89.1003 88.3404 89.5179 88.4929C89.9389 88.642 90.3101 88.8741 90.6316 89.1889C90.9564 89.5038 91.2116 89.9048 91.3972 90.392C91.5828 90.8759 91.6756 91.4527 91.6756 92.1222V92.674H85.4164V91.4609H89.9505C89.9471 91.1162 89.8726 90.8097 89.7267 90.5412C89.5809 90.2694 89.3771 90.0556 89.1152 89.8999C88.8567 89.7441 88.5551 89.6662 88.2104 89.6662C87.8425 89.6662 87.5194 89.7557 87.2409 89.9347C86.9625 90.1103 86.7454 90.3423 86.5897 90.6307C86.4372 90.9157 86.3593 91.2289 86.356 91.5703V92.6293C86.356 93.0734 86.4372 93.4545 86.5996 93.7727C86.762 94.0876 86.9891 94.3295 87.2807 94.4986C87.5724 94.6643 87.9138 94.7472 88.3049 94.7472C88.5667 94.7472 88.8037 94.7107 89.0158 94.6378C89.2279 94.5616 89.4119 94.4505 89.5676 94.3047C89.7234 94.1589 89.8411 93.9782 89.9206 93.7628L91.601 93.9517C91.495 94.3958 91.2928 94.7836 90.9945 95.1151C90.6995 95.4432 90.3217 95.6984 89.861 95.8807C89.4003 96.0597 88.8733 96.1491 88.28 96.1491ZM99.5046 96.1342C98.9047 96.1342 98.3678 95.9801 97.8938 95.6719C97.4199 95.3636 97.0453 94.9162 96.7702 94.3295C96.4951 93.7429 96.3576 93.0303 96.3576 92.1918C96.3576 91.3433 96.4968 90.6274 96.7752 90.044C97.0569 89.4574 97.4364 89.0149 97.9137 88.7166C98.391 88.415 98.9229 88.2642 99.5096 88.2642C99.957 88.2642 100.325 88.3404 100.613 88.4929C100.902 88.642 101.13 88.8227 101.299 89.0348C101.468 89.2436 101.599 89.4408 101.692 89.6264H101.767V85.8182H103.571V96H101.801V94.7969H101.692C101.599 94.9825 101.465 95.1797 101.289 95.3885C101.114 95.594 100.882 95.7696 100.593 95.9155C100.305 96.0613 99.9421 96.1342 99.5046 96.1342ZM100.007 94.6577C100.388 94.6577 100.713 94.5549 100.981 94.3494C101.25 94.1406 101.453 93.8506 101.593 93.4794C101.732 93.1082 101.801 92.6757 101.801 92.1818C101.801 91.688 101.732 91.2588 101.593 90.8942C101.457 90.5296 101.255 90.2462 100.986 90.044C100.721 89.8419 100.395 89.7408 100.007 89.7408C99.6057 89.7408 99.271 89.8452 99.0025 90.054C98.734 90.2628 98.5318 90.5511 98.396 90.919C98.2601 91.2869 98.1921 91.7079 98.1921 92.1818C98.1921 92.6591 98.2601 93.085 98.396 93.4595C98.5352 93.8307 98.739 94.1241 99.0075 94.3395C99.2792 94.5516 99.6123 94.6577 100.007 94.6577ZM110.356 92.7884V88.3636H112.156V96H110.411V94.6428H110.331C110.159 95.0703 109.876 95.42 109.481 95.6918C109.09 95.9635 108.608 96.0994 108.035 96.0994C107.534 96.0994 107.092 95.9884 106.707 95.7663C106.326 95.541 106.028 95.2145 105.812 94.7869C105.597 94.3561 105.489 93.8357 105.489 93.2259V88.3636H107.289V92.9474C107.289 93.4313 107.421 93.8158 107.687 94.1009C107.952 94.3859 108.3 94.5284 108.731 94.5284C108.996 94.5284 109.253 94.4638 109.501 94.3345C109.75 94.2053 109.954 94.013 110.113 93.7578C110.275 93.4993 110.356 93.1761 110.356 92.7884ZM123.515 90.3821L121.874 90.5611C121.828 90.3954 121.747 90.2396 121.631 90.0938C121.518 89.9479 121.366 89.8303 121.173 89.7408C120.981 89.6513 120.746 89.6065 120.467 89.6065C120.093 89.6065 119.778 89.6877 119.523 89.8501C119.271 90.0125 119.147 90.223 119.15 90.4815C119.147 90.7036 119.228 90.8842 119.393 91.0234C119.563 91.1626 119.841 91.277 120.229 91.3665L121.531 91.6449C122.254 91.8007 122.791 92.0476 123.142 92.3857C123.497 92.7237 123.676 93.1662 123.679 93.7131C123.676 94.1937 123.535 94.6179 123.256 94.9858C122.981 95.3504 122.598 95.6354 122.108 95.8409C121.617 96.0464 121.054 96.1491 120.418 96.1491C119.483 96.1491 118.731 95.9536 118.161 95.5625C117.59 95.1681 117.251 94.6196 117.141 93.9169L118.896 93.7479C118.976 94.0926 119.145 94.3527 119.403 94.5284C119.662 94.7041 119.998 94.7919 120.413 94.7919C120.84 94.7919 121.183 94.7041 121.442 94.5284C121.704 94.3527 121.835 94.1357 121.835 93.8771C121.835 93.6584 121.75 93.4777 121.581 93.3352C121.415 93.1927 121.157 93.0833 120.805 93.0071L119.503 92.7337C118.77 92.5812 118.228 92.3243 117.877 91.9631C117.526 91.5985 117.352 91.1378 117.355 90.581C117.352 90.1103 117.479 89.7027 117.738 89.358C118 89.0099 118.363 88.7415 118.827 88.5526C119.294 88.3603 119.833 88.2642 120.442 88.2642C121.337 88.2642 122.042 88.4548 122.555 88.8359C123.072 89.2171 123.392 89.7325 123.515 90.3821ZM128.494 96.1491C127.732 96.1491 127.077 95.9818 126.53 95.647C125.987 95.3123 125.567 94.8499 125.272 94.2599C124.981 93.6667 124.835 92.9839 124.835 92.2116C124.835 91.4361 124.984 90.7517 125.282 90.1584C125.581 89.5618 126.002 89.0978 126.545 88.7663C127.092 88.4316 127.738 88.2642 128.484 88.2642C129.104 88.2642 129.652 88.3786 130.13 88.6072C130.61 88.8326 130.993 89.1525 131.278 89.5668C131.563 89.9777 131.725 90.4583 131.765 91.0085H130.045C129.975 90.6406 129.81 90.334 129.548 90.0888C129.289 89.8402 128.943 89.7159 128.509 89.7159C128.141 89.7159 127.818 89.8153 127.539 90.0142C127.261 90.2098 127.044 90.4915 126.888 90.8594C126.736 91.2273 126.659 91.6681 126.659 92.1818C126.659 92.7022 126.736 93.1496 126.888 93.5241C127.041 93.8954 127.254 94.1821 127.529 94.3842C127.808 94.5831 128.134 94.6825 128.509 94.6825C128.774 94.6825 129.011 94.6328 129.22 94.5334C129.432 94.4306 129.609 94.2831 129.752 94.0909C129.894 93.8987 129.992 93.665 130.045 93.3899H131.765C131.722 93.9302 131.563 94.4091 131.288 94.8267C131.013 95.241 130.638 95.5658 130.164 95.8011C129.69 96.0331 129.134 96.1491 128.494 96.1491ZM136.574 96.1491C135.828 96.1491 135.182 95.9851 134.635 95.657C134.088 95.3288 133.664 94.8698 133.362 94.2798C133.064 93.6899 132.915 93.0005 132.915 92.2116C132.915 91.4228 133.064 90.7318 133.362 90.1385C133.664 89.5452 134.088 89.0845 134.635 88.7564C135.182 88.4283 135.828 88.2642 136.574 88.2642C137.32 88.2642 137.966 88.4283 138.513 88.7564C139.06 89.0845 139.482 89.5452 139.781 90.1385C140.082 90.7318 140.233 91.4228 140.233 92.2116C140.233 93.0005 140.082 93.6899 139.781 94.2798C139.482 94.8698 139.06 95.3288 138.513 95.657C137.966 95.9851 137.32 96.1491 136.574 96.1491ZM136.584 94.7074C136.988 94.7074 137.326 94.5964 137.598 94.3743C137.87 94.1489 138.072 93.8473 138.205 93.4695C138.341 93.0916 138.409 92.6707 138.409 92.2067C138.409 91.7393 138.341 91.3168 138.205 90.9389C138.072 90.5578 137.87 90.2545 137.598 90.0291C137.326 89.8037 136.988 89.6911 136.584 89.6911C136.17 89.6911 135.825 89.8037 135.55 90.0291C135.278 90.2545 135.074 90.5578 134.938 90.9389C134.806 91.3168 134.74 91.7393 134.74 92.2067C134.74 92.6707 134.806 93.0916 134.938 93.4695C135.074 93.8473 135.278 94.1489 135.55 94.3743C135.825 94.5964 136.17 94.7074 136.584 94.7074ZM141.761 96V88.3636H143.506V89.6364H143.585C143.724 89.1955 143.963 88.8558 144.301 88.6172C144.643 88.3752 145.032 88.2543 145.469 88.2543C145.569 88.2543 145.68 88.2592 145.803 88.2692C145.929 88.2758 146.033 88.2874 146.116 88.304V89.9595C146.04 89.933 145.919 89.9098 145.753 89.8899C145.59 89.8667 145.433 89.8551 145.281 89.8551C144.952 89.8551 144.657 89.9264 144.396 90.0689C144.137 90.2081 143.933 90.402 143.784 90.6506C143.635 90.8991 143.56 91.1858 143.56 91.5107V96H141.761ZM150.378 96.1491C149.612 96.1491 148.951 95.9901 148.394 95.6719C147.84 95.3504 147.415 94.8963 147.116 94.3097C146.818 93.7197 146.669 93.0253 146.669 92.2266C146.669 91.4411 146.818 90.7517 147.116 90.1584C147.418 89.5618 147.839 89.0978 148.379 88.7663C148.919 88.4316 149.554 88.2642 150.283 88.2642C150.754 88.2642 151.198 88.3404 151.616 88.4929C152.037 88.642 152.408 88.8741 152.729 89.1889C153.054 89.5038 153.309 89.9048 153.495 90.392C153.68 90.8759 153.773 91.4527 153.773 92.1222V92.674H147.514V91.4609H152.048C152.045 91.1162 151.97 90.8097 151.824 90.5412C151.679 90.2694 151.475 90.0556 151.213 89.8999C150.954 89.7441 150.653 89.6662 150.308 89.6662C149.94 89.6662 149.617 89.7557 149.339 89.9347C149.06 90.1103 148.843 90.3423 148.687 90.6307C148.535 90.9157 148.457 91.2289 148.454 91.5703V92.6293C148.454 93.0734 148.535 93.4545 148.697 93.7727C148.86 94.0876 149.087 94.3295 149.378 94.4986C149.67 94.6643 150.011 94.7472 150.403 94.7472C150.664 94.7472 150.901 94.7107 151.113 94.6378C151.326 94.5616 151.51 94.4505 151.665 94.3047C151.821 94.1589 151.939 93.9782 152.018 93.7628L153.699 93.9517C153.593 94.3958 153.39 94.7836 153.092 95.1151C152.797 95.4432 152.419 95.6984 151.959 95.8807C151.498 96.0597 150.971 96.1491 150.378 96.1491Z" fill="white"/>
<path opacity="0.3" d="M51 184H402" stroke="white"/>
<path opacity="0.3" d="M51 163H402" stroke="white"/>
<path opacity="0.3" d="M51 142H402" stroke="white"/>
<path opacity="0.3" d="M51 121H402" stroke="white"/>
<path opacity="0.8" d="M59 151.273L62.5875 154.739C83.7884 175.224 117.657 174.379 137.811 152.863V152.863C155.967 133.48 184.88 128.712 208.299 141.239L211.915 143.174C229.633 152.651 250.772 153.259 269.004 144.816L276.651 141.275C307.134 127.16 342.31 127.302 372.678 141.663L393 151.273" stroke="white" stroke-width="1.5"/>
<path opacity="0.8" d="M23.6406 117V125H22.6719V118.016H22.625L20.6719 119.312V118.328L22.6719 117H23.6406ZM28.5508 125.109C27.9622 125.109 27.4609 124.949 27.0469 124.629C26.6328 124.306 26.3164 123.839 26.0977 123.227C25.8789 122.612 25.7695 121.87 25.7695 121C25.7695 120.135 25.8789 119.397 26.0977 118.785C26.319 118.171 26.6367 117.702 27.0508 117.379C27.4674 117.053 27.9674 116.891 28.5508 116.891C29.1341 116.891 29.6328 117.053 30.0469 117.379C30.4635 117.702 30.7813 118.171 31 118.785C31.2214 119.397 31.332 120.135 31.332 121C31.332 121.87 31.2227 122.612 31.0039 123.227C30.7852 123.839 30.4687 124.306 30.0547 124.629C29.6406 124.949 29.1393 125.109 28.5508 125.109ZM28.5508 124.25C29.1341 124.25 29.5872 123.969 29.9102 123.406C30.2331 122.844 30.3945 122.042 30.3945 121C30.3945 120.307 30.3203 119.717 30.1719 119.23C30.026 118.743 29.8151 118.372 29.5391 118.117C29.2656 117.862 28.9362 117.734 28.5508 117.734C27.9727 117.734 27.5208 118.02 27.1953 118.59C26.8698 119.158 26.707 119.961 26.707 121C26.707 121.693 26.7799 122.281 26.9258 122.766C27.0716 123.25 27.2813 123.618 27.5547 123.871C27.8307 124.124 28.1628 124.25 28.5508 124.25ZM35.4258 125.109C34.8372 125.109 34.3359 124.949 33.9219 124.629C33.5078 124.306 33.1914 123.839 32.9727 123.227C32.7539 122.612 32.6445 121.87 32.6445 121C32.6445 120.135 32.7539 119.397 32.9727 118.785C33.194 118.171 33.5117 117.702 33.9258 117.379C34.3424 117.053 34.8424 116.891 35.4258 116.891C36.0091 116.891 36.5078 117.053 36.9219 117.379C37.3385 117.702 37.6563 118.171 37.875 118.785C38.0964 119.397 38.207 120.135 38.207 121C38.207 121.87 38.0977 122.612 37.8789 123.227C37.6602 123.839 37.3437 124.306 36.9297 124.629C36.5156 124.949 36.0143 125.109 35.4258 125.109ZM35.4258 124.25C36.0091 124.25 36.4622 123.969 36.7852 123.406C37.1081 122.844 37.2695 122.042 37.2695 121C37.2695 120.307 37.1953 119.717 37.0469 119.23C36.901 118.743 36.6901 118.372 36.4141 118.117C36.1406 117.862 35.8112 117.734 35.4258 117.734C34.8477 117.734 34.3958 118.02 34.0703 118.59C33.7448 119.158 33.582 119.961 33.582 121C33.582 121.693 33.6549 122.281 33.8008 122.766C33.9466 123.25 34.1563 123.618 34.4297 123.871C34.7057 124.124 35.0378 124.25 35.4258 124.25Z" fill="white"/>
<path opacity="0.8" d="M27.209 146L30.7871 138.922V138.859H26.6621V138H31.7871V138.906L28.2246 146H27.209ZM35.6357 146.109C35.1774 146.109 34.7646 146.018 34.3975 145.836C34.0303 145.654 33.736 145.404 33.5146 145.086C33.2933 144.768 33.1722 144.406 33.1514 144H34.0889C34.1253 144.362 34.2894 144.661 34.5811 144.898C34.8753 145.133 35.2269 145.25 35.6357 145.25C35.9639 145.25 36.2555 145.173 36.5107 145.02C36.7686 144.866 36.9704 144.655 37.1162 144.387C37.2646 144.116 37.3389 143.81 37.3389 143.469C37.3389 143.12 37.262 142.809 37.1084 142.535C36.9574 142.259 36.749 142.042 36.4834 141.883C36.2178 141.724 35.9144 141.643 35.5732 141.641C35.3285 141.638 35.0771 141.676 34.8193 141.754C34.5615 141.829 34.3493 141.927 34.1826 142.047L33.2764 141.937L33.7607 138H37.917V138.859H34.5732L34.292 141.219H34.3389C34.5029 141.089 34.7087 140.98 34.9561 140.895C35.2035 140.809 35.4613 140.766 35.7295 140.766C36.2191 140.766 36.6553 140.883 37.0381 141.117C37.4235 141.349 37.7256 141.667 37.9443 142.07C38.1657 142.474 38.2764 142.935 38.2764 143.453C38.2764 143.964 38.1618 144.419 37.9326 144.82C37.7061 145.219 37.3936 145.534 36.9951 145.766C36.5967 145.995 36.1436 146.109 35.6357 146.109Z" fill="white"/>
<path opacity="0.8" d="M28.7607 167.109C28.3024 167.109 27.8896 167.018 27.5225 166.836C27.1553 166.654 26.861 166.404 26.6396 166.086C26.4183 165.768 26.2972 165.406 26.2764 165H27.2139C27.2503 165.362 27.4144 165.661 27.7061 165.898C28.0003 166.133 28.3519 166.25 28.7607 166.25C29.0889 166.25 29.3805 166.173 29.6357 166.02C29.8936 165.866 30.0954 165.655 30.2412 165.387C30.3896 165.116 30.4639 164.81 30.4639 164.469C30.4639 164.12 30.387 163.809 30.2334 163.535C30.0824 163.259 29.874 163.042 29.6084 162.883C29.3428 162.724 29.0394 162.643 28.6982 162.641C28.4535 162.638 28.2021 162.676 27.9443 162.754C27.6865 162.829 27.4743 162.927 27.3076 163.047L26.4014 162.937L26.8857 159H31.042V159.859H27.6982L27.417 162.219H27.4639C27.6279 162.089 27.8337 161.98 28.0811 161.895C28.3285 161.809 28.5863 161.766 28.8545 161.766C29.3441 161.766 29.7803 161.883 30.1631 162.117C30.5485 162.349 30.8506 162.667 31.0693 163.07C31.2907 163.474 31.4014 163.935 31.4014 164.453C31.4014 164.964 31.2868 165.419 31.0576 165.82C30.8311 166.219 30.5186 166.534 30.1201 166.766C29.7217 166.995 29.2686 167.109 28.7607 167.109ZM35.5625 167.109C34.974 167.109 34.4727 166.949 34.0586 166.629C33.6445 166.306 33.3281 165.839 33.1094 165.227C32.8906 164.612 32.7813 163.87 32.7813 163C32.7813 162.135 32.8906 161.397 33.1094 160.785C33.3307 160.171 33.6484 159.702 34.0625 159.379C34.4792 159.053 34.9792 158.891 35.5625 158.891C36.1458 158.891 36.6445 159.053 37.0586 159.379C37.4753 159.702 37.793 160.171 38.0117 160.785C38.2331 161.397 38.3438 162.135 38.3438 163C38.3438 163.87 38.2344 164.612 38.0156 165.227C37.7969 165.839 37.4805 166.306 37.0664 166.629C36.6523 166.949 36.151 167.109 35.5625 167.109ZM35.5625 166.25C36.1458 166.25 36.599 165.969 36.9219 165.406C37.2448 164.844 37.4063 164.042 37.4063 163C37.4063 162.307 37.332 161.717 37.1836 161.23C37.0378 160.743 36.8268 160.372 36.5508 160.117C36.2773 159.862 35.9479 159.734 35.5625 159.734C34.9844 159.734 34.5326 160.02 34.207 160.59C33.8815 161.158 33.7188 161.961 33.7188 163C33.7188 163.693 33.7917 164.281 33.9375 164.766C34.0833 165.25 34.293 165.618 34.5664 165.871C34.8424 166.124 35.1745 166.25 35.5625 166.25Z" fill="white"/>
<path opacity="0.8" d="M26.4756 188V187.297L29.1162 184.406C29.4261 184.068 29.6813 183.773 29.8818 183.523C30.0824 183.271 30.2308 183.034 30.3271 182.812C30.4261 182.589 30.4756 182.354 30.4756 182.109C30.4756 181.828 30.4079 181.585 30.2725 181.379C30.1396 181.173 29.9574 181.014 29.7256 180.902C29.4938 180.79 29.2334 180.734 28.9443 180.734C28.637 180.734 28.3688 180.798 28.1396 180.926C27.9131 181.051 27.7373 181.227 27.6123 181.453C27.4899 181.68 27.4287 181.945 27.4287 182.25H26.5068C26.5068 181.781 26.6149 181.37 26.8311 181.016C27.0472 180.661 27.3415 180.385 27.7139 180.187C28.0889 179.99 28.5094 179.891 28.9756 179.891C29.4443 179.891 29.8597 179.99 30.2217 180.187C30.5837 180.385 30.8675 180.652 31.0732 180.988C31.279 181.324 31.3818 181.698 31.3818 182.109C31.3818 182.404 31.3285 182.691 31.2217 182.973C31.1175 183.251 30.9352 183.562 30.6748 183.906C30.417 184.247 30.0589 184.664 29.6006 185.156L27.8037 187.078V187.141H31.5225V188H26.4756ZM35.6357 188.109C35.1774 188.109 34.7646 188.018 34.3975 187.836C34.0303 187.654 33.736 187.404 33.5146 187.086C33.2933 186.768 33.1722 186.406 33.1514 186H34.0889C34.1253 186.362 34.2894 186.661 34.5811 186.898C34.8753 187.133 35.2269 187.25 35.6357 187.25C35.9639 187.25 36.2555 187.173 36.5107 187.02C36.7686 186.866 36.9704 186.655 37.1162 186.387C37.2646 186.116 37.3389 185.81 37.3389 185.469C37.3389 185.12 37.262 184.809 37.1084 184.535C36.9574 184.259 36.749 184.042 36.4834 183.883C36.2178 183.724 35.9144 183.643 35.5732 183.641C35.3285 183.638 35.0771 183.676 34.8193 183.754C34.5615 183.829 34.3493 183.927 34.1826 184.047L33.2764 183.937L33.7607 180H37.917V180.859H34.5732L34.292 183.219H34.3389C34.5029 183.089 34.7087 182.98 34.9561 182.895C35.2035 182.809 35.4613 182.766 35.7295 182.766C36.2191 182.766 36.6553 182.883 37.0381 183.117C37.4235 183.349 37.7256 183.667 37.9443 184.07C38.1657 184.474 38.2764 184.935 38.2764 185.453C38.2764 185.964 38.1618 186.419 37.9326 186.82C37.7061 187.219 37.3936 187.534 36.9951 187.766C36.5967 187.995 36.1436 188.109 35.6357 188.109Z" fill="white"/>
<rect opacity="0.8" x="287" y="90" width="69" height="6" rx="3" fill="white"/>
<rect opacity="0.4" x="361" y="90" width="41" height="6" rx="3" fill="white"/>
</g>
<defs>
<filter id="filter0_d_5312_21178" x="0" y="0" width="152" height="84" filterUnits="userSpaceOnUse" color-interpolation-filters="sRGB">
<feFlood flood-opacity="0" result="BackgroundImageFix"/>
<feColorMatrix in="SourceAlpha" type="matrix" values="0 0 0 0 0 0 0 0 0 0 0 0 0 0 0 0 0 0 127 0" result="hardAlpha"/>
<feOffset dy="4"/>
<feGaussianBlur stdDeviation="6"/>
<feComposite in2="hardAlpha" operator="out"/>
<feColorMatrix type="matrix" values="0 0 0 0 0.235294 0 0 0 0 0.0784314 0 0 0 0 0.254902 0 0 0 0.08 0"/>
<feBlend mode="normal" in2="BackgroundImageFix" result="effect1_dropShadow_5312_21178"/>
<feBlend mode="normal" in="SourceGraphic" in2="effect1_dropShadow_5312_21178" result="shape"/>
</filter>
<filter id="filter1_d_5312_21178" x="136" y="0" width="152" height="84" filterUnits="userSpaceOnUse" color-interpolation-filters="sRGB">
<feFlood flood-opacity="0" result="BackgroundImageFix"/>
<feColorMatrix in="SourceAlpha" type="matrix" values="0 0 0 0 0 0 0 0 0 0 0 0 0 0 0 0 0 0 127 0" result="hardAlpha"/>
<feOffset dy="4"/>
<feGaussianBlur stdDeviation="6"/>
<feComposite in2="hardAlpha" operator="out"/>
<feColorMatrix type="matrix" values="0 0 0 0 0.235294 0 0 0 0 0.0784314 0 0 0 0 0.254902 0 0 0 0.08 0"/>
<feBlend mode="normal" in2="BackgroundImageFix" result="effect1_dropShadow_5312_21178"/>
<feBlend mode="normal" in="SourceGraphic" in2="effect1_dropShadow_5312_21178" result="shape"/>
</filter>
<filter id="filter2_d_5312_21178" x="272" y="0" width="152" height="84" filterUnits="userSpaceOnUse" color-interpolation-filters="sRGB">
<feFlood flood-opacity="0" result="BackgroundImageFix"/>
<feColorMatrix in="SourceAlpha" type="matrix" values="0 0 0 0 0 0 0 0 0 0 0 0 0 0 0 0 0 0 127 0" result="hardAlpha"/>
<feOffset dy="4"/>
<feGaussianBlur stdDeviation="6"/>
<feComposite in2="hardAlpha" operator="out"/>
<feColorMatrix type="matrix" values="0 0 0 0 0.235294 0 0 0 0 0.0784314 0 0 0 0 0.254902 0 0 0 0.08 0"/>
<feBlend mode="normal" in2="BackgroundImageFix" result="effect1_dropShadow_5312_21178"/>
<feBlend mode="normal" in="SourceGraphic" in2="effect1_dropShadow_5312_21178" result="shape"/>
</filter>
<filter id="filter3_d_5312_21178" x="0" y="68" width="424" height="145" filterUnits="userSpaceOnUse" color-interpolation-filters="sRGB">
<feFlood flood-opacity="0" result="BackgroundImageFix"/>
<feColorMatrix in="SourceAlpha" type="matrix" values="0 0 0 0 0 0 0 0 0 0 0 0 0 0 0 0 0 0 127 0" result="hardAlpha"/>
<feOffset dy="4"/>
<feGaussianBlur stdDeviation="6"/>
<feComposite in2="hardAlpha" operator="out"/>
<feColorMatrix type="matrix" values="0 0 0 0 0.235294 0 0 0 0 0.0784314 0 0 0 0 0.254902 0 0 0 0.08 0"/>
<feBlend mode="normal" in2="BackgroundImageFix" result="effect1_dropShadow_5312_21178"/>
<feBlend mode="normal" in="SourceGraphic" in2="effect1_dropShadow_5312_21178" result="shape"/>
</filter>
</defs>
</svg>
